<svg width="35" height="10" color="white" viewBox="0 0 32 32" fill="white" xmlns="http://www.w3.org/2000/svg">
<path d="M7.602 19.2025L6.52676 23.1907L2.59429 23.2746C1.41032 21.1096 0.74585 18.6328 0.74585 16C0.74585 13.4512 1.36804 11.0523 2.47348 8.94124L5.97706 9.57695L7.51139 13.0314C7.19123 13.9609 7.01605 14.9565 7.01605 16C7.01605 17.1275 7.22144 18.207 7.602 19.2025Z" fill="#FBBB00"/>
<path d="M31.4022 13.1333C31.5774 14.0629 31.674 15.0224 31.674 16C31.674 17.0975 31.5592 18.171 31.3357 19.2085C30.5807 22.7289 28.6174 25.7995 25.8931 27.9765L21.4834 27.7546L20.8612 23.8864C22.6674 22.8309 24.0809 21.1876 24.8239 19.2145H16.5482V13.1333H24.9387H31.4022Z" fill="#518EF8"/>
<path d="M25.8931 27.9705C23.2413 30.0875 19.8766 31.353 16.2099 31.353C10.3203 31.353 5.19782 28.0845 2.58826 23.2747L7.602 19.2025C8.90678 22.663 12.2714 25.1278 16.2099 25.1278C17.9013 25.1278 19.49 24.672 20.8552 23.8804L25.8931 27.9705Z" fill="#28B446"/>
<path d="M26.0804 4.17943L21.0727 8.25156C19.6652 7.37596 17.998 6.87219 16.21 6.87219C12.1808 6.87219 8.75579 9.45101 7.51142 13.0314L2.47351 8.93524C5.04683 4.01151 10.2358 0.647057 16.21 0.647057C19.9612 0.647057 23.4044 1.97245 26.0804 4.17943Z" fill="#F14336"/>
</svg>