<svg width="196" height="58" viewBox="0 0 196 58" fill="none" xmlns="http://www.w3.org/2000/svg">
<path d="M4.57143 22V17.7143H0.285714V0.571429H8.85714V4.85714H17.4286V0.571429H26V17.7143H21.7143V22H4.57143ZM51.3726 4.85714H42.8012V9.14286H51.3726V13.4286H42.8012V17.7143H51.3726V22H34.2297V0.571429H51.3726V4.85714ZM68.167 17.7143H76.7385V22H59.5956V0.571429H68.167V17.7143ZM89.2472 22V17.7143H84.9615V4.85714H89.2472V0.571429H102.104V4.85714H106.39V9.14286H97.8186V4.85714H93.5329V17.7143H97.8186V13.4286H106.39V17.7143H102.104V22H89.2472ZM118.902 22V17.7143H114.616V4.85714H118.902V0.571429H131.759V4.85714H136.045V17.7143H131.759V22H118.902ZM123.188 17.7143H127.474V4.85714H123.188V17.7143ZM144.271 22V0.571429H152.843V4.85714H161.414V0.571429H169.986V22H161.414V13.4286H152.843V22H144.271ZM195.358 4.85714H186.787V9.14286H195.358V13.4286H186.787V17.7143H195.358V22H178.215V0.571429H195.358V4.85714Z" fill="white"/>
<path d="M0.285714 58V36.5714H8.85714V40.8571H13.1429V45.1429H17.4286V36.5714H26V58H17.4286V53.7143H13.1429V49.4286H8.85714V58H0.285714ZM51.3726 40.8571H55.6583V58H47.0869V49.4286H42.8012V58H34.2297V40.8571H38.5154V36.5714H51.3726V40.8571ZM42.8012 45.1429H47.0869V40.8571H42.8012V45.1429ZM63.8847 58V36.5714H72.4561V40.8571H81.0275V36.5714H89.599V58H81.0275V49.4286H72.4561V58H63.8847ZM114.972 40.8571H106.4V45.1429H114.972V49.4286H106.4V53.7143H114.972V58H97.8287V36.5714H114.972V40.8571ZM123.195 49.4286V36.5714H131.766V49.4286H123.195ZM123.195 53.7143H131.766V58H123.195V53.7143Z" fill="#F50D5A"/>
</svg>